<svg width="10" height="13" viewBox="0 0 10 13" fill="none" xmlns="http://www.w3.org/2000/svg">
<path d="M0.363281 12L1.93359 5.03906H2.13281L2.41406 6.33984L1.14844 12H0.363281ZM2.01562 10.582L2.17969 9.80859H3.73828L2.41406 3.80859H3.21094L5.03906 12H4.24219L3.9375 10.582H2.01562Z" fill="#3840F7"/>
<path d="M5.45703 10.3008C5.45703 10.707 5.61328 11.0781 5.92578 11.4141C6.29297 11.8047 6.78125 12 7.39062 12V11.2617C6.95312 11.2617 6.61719 11.0859 6.38281 10.7344C6.28906 10.5859 6.24219 10.4414 6.24219 10.3008V7.52344C6.24219 7.24219 6.37891 6.99219 6.65234 6.77344C6.87109 6.60156 7.11719 6.51562 7.39062 6.51562V5.77734C6.65625 5.77734 6.10156 6.07031 5.72656 6.65625C5.55469 6.9375 5.46484 7.21484 5.45703 7.48828V10.3008ZM7.91797 6.52734C8.30078 6.52734 8.58984 6.69141 8.78516 7.01953C8.87891 7.16797 8.93359 7.33984 8.94922 7.53516C8.95703 7.57422 8.96094 7.65625 8.96094 7.78125L9.6875 7.51172C9.6875 6.94922 9.45703 6.49219 8.99609 6.14062C8.67578 5.89844 8.31641 5.77734 7.91797 5.77734V6.52734ZM7.90625 12.0117C8.45312 12.0195 8.92969 11.8125 9.33594 11.3906C9.66406 11.0469 9.82812 10.6719 9.82812 10.2656L9.08984 9.98438V10.2188C9.04297 10.6562 8.82422 10.9688 8.43359 11.1562C8.26172 11.2344 8.08594 11.2734 7.90625 11.2734V12.0117Z" fill="#4E4E4E"/>
</svg>
