<?xml version="1.0" ?><svg viewBox="0 0 512 512" xmlns="http://www.w3.org/2000/svg"><g data-name="/ OUTLINE" id="_OUTLINE"><path d="M491.5293,159.17773,459.2959,114.0498A23.88521,23.88521,0,0,0,456,110.34033V80a24.0275,24.0275,0,0,0-24-24H352a24.0275,24.0275,0,0,0-24,24v30.34082a23.8774,23.8774,0,0,0-3.2959,3.71L308.86255,136.229l-2.26685-22.66943a48.96617,48.96617,0,0,0-33.19433-41.52539l-1.76367-.58789A49.13842,49.13842,0,0,0,258.991,69.01978l12.76977-51.07935-15.52148-3.88086L244.574,60.72119,231.71484,13.88184l-15.42968,4.23632,11.99072,43.67676L188.64941,33.49023l-9.29882,13.01954L225.687,79.60718c-.01953.01587-.04053.02954-.06006.04516a48.96693,48.96693,0,0,0-15.60644,54.33789l3.88672,11.10474a67.502,67.502,0,0,0-29.94849-8.97095,40.06031,40.06031,0,0,0-25.84155-63.65625,79.59588,79.59588,0,0,0-40.041-46.374l-2.49707-1.249-7.1582,14.31054,2.499,1.249a63.61481,63.61481,0,0,1,30.5232,33.02905A40.2682,40.2682,0,0,0,125.489,82.0752a47.95121,47.95121,0,0,0-85.07617,36.116A48.00252,48.00252,0,0,0,64,208a24.0275,24.0275,0,0,1,24,24v20c0,1.33472.05078,2.66846.12866,4H56a24.0275,24.0275,0,0,0-24,24v25.37622A24.0384,24.0384,0,0,0,16,328V472a24.0275,24.0275,0,0,0,24,24H88a24.0275,24.0275,0,0,0,24-24V454.668A128.57926,128.57926,0,0,0,160,464h80v8a24.0275,24.0275,0,0,0,24,24H472a24.0275,24.0275,0,0,0,24-24V173.127A23.86271,23.86271,0,0,0,491.5293,159.17773ZM472.45459,160H423.54565l24.45484-34.23657ZM344,80a8.00917,8.00917,0,0,1,8-8h80a8.00917,8.00917,0,0,1,8,8v24.00708c-.07812-.00073-.15527-.00708-.2334-.00708H344.2334c-.07813,0-.15528.00635-.2334.00708ZM235.62207,92.14648a32.78343,32.78343,0,0,1,30.958-5.5205l1.76269.58789a32.94386,32.94386,0,0,1,22.333,27.9375l4.08228,40.82422-2.28736,3.20214A23.86271,23.86271,0,0,0,288,173.127V256H269.67578l-19.279-55.08228,27.2605-27.26049-11.31446-11.31446-21.4187,21.4187a67.51025,67.51025,0,0,0-4.011-9.93945L233.804,153.5105l27.85327-27.85327-11.31446-11.31446-22.40551,22.40552-2.81519-8.04321A32.94561,32.94561,0,0,1,235.62207,92.14648ZM252.72437,256h-9.40992l-9.9414-9.94141a67.996,67.996,0,0,0,9.87475-17.13427ZM200,156.00537a52.30973,52.30973,0,0,1,26.15967,24.09668l4.8667,13.9043a51.833,51.833,0,0,1-9.05811,40.64746L200,212.68555Zm10.65381,89.96289A51.86382,51.86382,0,0,1,142.53027,240h62.15528ZM132.00537,224A51.71028,51.71028,0,0,1,128,204v-4h36.68555l24,24ZM152,88a23.99,23.99,0,0,1,3.95825,47.65283A24.03492,24.03492,0,0,1,136,112a47.77571,47.77571,0,0,0-2.50244-15.26318A24.09194,24.09194,0,0,1,152,88ZM88,80a32.03667,32.03667,0,0,1,32,32,40.04584,40.04584,0,0,0,40,40h20c1.34717,0,2.67822.06787,4,.16919v44.51636l-42.34277-42.34278-11.31446,11.31446L148.68555,184H128a40.04584,40.04584,0,0,0-40-40,32,32,0,0,1,0-64ZM64,192a31.99826,31.99826,0,0,1-18.64258-58.0061A48.03911,48.03911,0,0,0,88,160a24.0275,24.0275,0,0,1,24,24v20a67.86969,67.86969,0,0,0,24.24829,52H104.168c-.10108-1.32959-.168-2.66357-.168-4V232A40.04584,40.04584,0,0,0,64,192ZM96,472a8.00917,8.00917,0,0,1-8,8H40a8.00917,8.00917,0,0,1-8-8V328a8.00917,8.00917,0,0,1,8-8H88a8.00917,8.00917,0,0,1,8,8Zm144-24H160a112.38607,112.38607,0,0,1-48-10.792V432H240Zm0-32H112V384H240Zm0-88v40H112V328a24.0275,24.0275,0,0,0-24-24H48V280a8.00917,8.00917,0,0,1,8-8H288v32H264A24.0275,24.0275,0,0,0,240,328Zm80,144a8.00917,8.00917,0,0,1-8,8H264a8.00917,8.00917,0,0,1-8-8V328a8.00917,8.00917,0,0,1,8-8h48a8.00917,8.00917,0,0,1,8,8Zm80,8H334.62378A23.88238,23.88238,0,0,0,336,472V328a24.0275,24.0275,0,0,0-24-24h-8V176h96Zm3.92969-320h-92.384l26.178-36.64941A8.01816,8.01816,0,0,1,344.2334,120h88.22095L404.4707,159.17773C404.27905,159.446,404.10938,159.72559,403.92969,160ZM480,472a8.00917,8.00917,0,0,1-8,8H416V176h64Z"/><path d="M352,280a32,32,0,1,0-32-32A32.03667,32.03667,0,0,0,352,280Zm0-48a16,16,0,1,1-16,16A16.01833,16.01833,0,0,1,352,232Z"/></g></svg>